solid Box model
facet normal -1.0 -7.396633396846931e-17 2.6856823643313304e-16
  outer loop
    vertex 62.663347664413415 34.0 26.000000000000004
    vertex 62.663347664413415 0.0 4.999999999999999
    vertex 62.663347664413415 0.0 26.000000000000004
  endloop
endfacet
facet normal -1.0 -7.396633396846931e-17 2.6856823643313304e-16
  outer loop
    vertex 62.663347664413415 0.0 4.999999999999999
    vertex 62.663347664413415 34.0 26.000000000000004
    vertex 62.663347664413415 12.999999999999998 7.999999999999999
  endloop
endfacet
facet normal -1.0 -7.396633396846931e-17 2.6856823643313304e-16
  outer loop
    vertex 62.663347664413415 12.999999999999998 7.999999999999999
    vertex 62.663347664413415 34.0 26.000000000000004
    vertex 62.6633476644134 20.999999999999996 7.999999999999999
  endloop
endfacet
facet normal -1.0 -7.396633396846931e-17 2.6856823643313304e-16
  outer loop
    vertex 62.6633476644134 20.999999999999996 7.999999999999999
    vertex 62.663347664413415 34.0 26.000000000000004
    vertex 62.6633476644134 20.999999999999996 4.999999999999999
  endloop
endfacet
facet normal -1.0 -7.396633396846931e-17 2.6856823643313304e-16
  outer loop
    vertex 62.6633476644134 20.999999999999996 4.999999999999999
    vertex 62.663347664413415 34.0 26.000000000000004
    vertex 62.663347664413415 34.0 4.999999999999999
  endloop
endfacet
facet normal -1.0 -7.396633396846931e-17 2.6856823643313304e-16
  outer loop
    vertex 62.663347664413415 12.999999999999998 4.999999999999999
    vertex 62.663347664413415 0.0 4.999999999999999
    vertex 62.663347664413415 12.999999999999998 7.999999999999999
  endloop
endfacet
facet normal -1.409983241273948e-15 0.9999999999999999 0.0
  outer loop
    vertex 61.6633476644134 20.999999999999996 7.999999999999994
    vertex 62.6633476644134 20.999999999999996 4.999999999999999
    vertex 61.6633476644134 20.999999999999996 4.999999999999995
  endloop
endfacet
facet normal -1.409983241273948e-15 0.9999999999999999 0.0
  outer loop
    vertex 62.6633476644134 20.999999999999996 4.999999999999999
    vertex 61.6633476644134 20.999999999999996 7.999999999999994
    vertex 62.6633476644134 20.999999999999996 7.999999999999999
  endloop
endfacet
facet normal 5.3361019338360016e-49 1.0 -2.255973186038318e-16
  outer loop
    vertex 20.66334766441342 32.99999999999999 26.000000000000004
    vertex 61.663347664413415 32.99999999999999 0.9999999999999998
    vertex 20.66334766441342 32.99999999999999 0.9999999999999998
  endloop
endfacet
facet normal 5.3361019338360016e-49 1.0 -2.255973186038318e-16
  outer loop
    vertex 61.663347664413415 32.99999999999999 0.9999999999999998
    vertex 20.66334766441342 32.99999999999999 26.000000000000004
    vertex 61.663347664413415 32.99999999999999 26.000000000000004
  endloop
endfacet
facet normal 0.0 0.0 -1.0
  outer loop
    vertex 19.663347664413422 34.0 26.000000000000004
    vertex 20.66334766441342 32.99999999999999 26.000000000000004
    vertex 19.663347664413422 31.999999999999996 26.000000000000004
  endloop
endfacet
facet normal 0.0 0.0 -1.0
  outer loop
    vertex 20.66334766441342 32.99999999999999 26.000000000000004
    vertex 19.663347664413422 34.0 26.000000000000004
    vertex 62.663347664413415 34.0 26.000000000000004
  endloop
endfacet
facet normal 0.0 0.0 -1.0
  outer loop
    vertex 20.66334766441342 32.99999999999999 26.000000000000004
    vertex 62.663347664413415 34.0 26.000000000000004
    vertex 61.663347664413415 32.99999999999999 26.000000000000004
  endloop
endfacet
facet normal 0.0 0.0 -1.0
  outer loop
    vertex 61.663347664413415 32.99999999999999 26.000000000000004
    vertex 62.663347664413415 34.0 26.000000000000004
    vertex 61.663347664413415 0.9999999999999999 26.000000000000004
  endloop
endfacet
facet normal 0.0 0.0 -1.0
  outer loop
    vertex 20.66334766441342 31.999999999999996 26.000000000000004
    vertex 19.663347664413422 0.0 26.000000000000004
    vertex 19.663347664413422 31.999999999999996 26.000000000000004
  endloop
endfacet
facet normal 0.0 0.0 -1.0
  outer loop
    vertex 19.663347664413422 0.0 26.000000000000004
    vertex 20.66334766441342 31.999999999999996 26.000000000000004
    vertex 20.66334766441342 0.9999999999999999 26.000000000000004
  endloop
endfacet
facet normal 0.0 0.0 -1.0
  outer loop
    vertex 19.663347664413422 0.0 26.000000000000004
    vertex 20.66334766441342 0.9999999999999999 26.000000000000004
    vertex 62.663347664413415 0.0 26.000000000000004
  endloop
endfacet
facet normal 0.0 0.0 -1.0
  outer loop
    vertex 62.663347664413415 0.0 26.000000000000004
    vertex 20.66334766441342 0.9999999999999999 26.000000000000004
    vertex 61.663347664413415 0.9999999999999999 26.000000000000004
  endloop
endfacet
facet normal 0.0 0.0 -1.0
  outer loop
    vertex 62.663347664413415 0.0 26.000000000000004
    vertex 61.663347664413415 0.9999999999999999 26.000000000000004
    vertex 62.663347664413415 34.0 26.000000000000004
  endloop
endfacet
facet normal 0.0 0.0 -1.0
  outer loop
    vertex 20.66334766441342 31.999999999999996 26.000000000000004
    vertex 19.663347664413422 31.999999999999996 26.000000000000004
    vertex 20.66334766441342 32.99999999999999 26.000000000000004
  endloop
endfacet
facet normal 1.0 -0.0 -0.0
  outer loop
    vertex 19.663347664413422 34.0 0.0
    vertex 19.663347664413422 0.0 26.000000000000004
    vertex 19.663347664413422 0.0 0.0
  endloop
endfacet
facet normal 1.0 -0.0 -0.0
  outer loop
    vertex 19.663347664413422 0.0 26.000000000000004
    vertex 19.663347664413422 34.0 0.0
    vertex 19.663347664413422 31.999999999999996 26.000000000000004
  endloop
endfacet
facet normal 1.0 -0.0 -0.0
  outer loop
    vertex 19.663347664413422 31.999999999999996 26.000000000000004
    vertex 19.663347664413422 34.0 0.0
    vertex 19.663347664413422 34.0 26.000000000000004
  endloop
endfacet
facet normal 0.0 -1.0 0.0
  outer loop
    vertex 62.663347664413415 34.0 4.999999999999999
    vertex 19.663347664413422 34.0 0.0
    vertex 62.663347664413415 34.0 0.0
  endloop
endfacet
facet normal 0.0 -1.0 0.0
  outer loop
    vertex 19.663347664413422 34.0 0.0
    vertex 62.663347664413415 34.0 4.999999999999999
    vertex 19.663347664413422 34.0 26.000000000000004
  endloop
endfacet
facet normal 0.0 -1.0 0.0
  outer loop
    vertex 19.663347664413422 34.0 26.000000000000004
    vertex 62.663347664413415 34.0 4.999999999999999
    vertex 62.663347664413415 34.0 26.000000000000004
  endloop
endfacet
facet normal -1.0 -3.7979346566301635e-17 -4.511946372076636e-16
  outer loop
    vertex 62.663347664413415 12.999999999999998 4.999999999999999
    vertex 62.663347664413415 0.0 0.0
    vertex 62.663347664413415 0.0 4.999999999999999
  endloop
endfacet
facet normal -1.0 -3.7979346566301635e-17 -4.511946372076636e-16
  outer loop
    vertex 62.663347664413415 0.0 0.0
    vertex 62.663347664413415 12.999999999999998 4.999999999999999
    vertex 62.663347664413415 34.0 0.0
  endloop
endfacet
facet normal -1.0 -3.7979346566301635e-17 -4.511946372076636e-16
  outer loop
    vertex 62.663347664413415 34.0 0.0
    vertex 62.663347664413415 12.999999999999998 4.999999999999999
    vertex 62.6633476644134 20.999999999999996 4.999999999999999
  endloop
endfacet
facet normal -1.0 -3.7979346566301635e-17 -4.511946372076636e-16
  outer loop
    vertex 62.663347664413415 34.0 0.0
    vertex 62.6633476644134 20.999999999999996 4.999999999999999
    vertex 62.663347664413415 34.0 4.999999999999999
  endloop
endfacet
facet normal 1.0 0.0 0.0
  outer loop
    vertex 61.663347664413415 0.9999999999999999 0.9999999999999999
    vertex 61.663347664413415 12.999999999999996 4.999999999999995
    vertex 61.663347664413415 0.9999999999999999 26.000000000000004
  endloop
endfacet
facet normal 1.0 0.0 0.0
  outer loop
    vertex 61.663347664413415 12.999999999999996 4.999999999999995
    vertex 61.663347664413415 0.9999999999999999 0.9999999999999999
    vertex 61.663347664413415 32.99999999999999 0.9999999999999998
  endloop
endfacet
facet normal 1.0 0.0 0.0
  outer loop
    vertex 61.663347664413415 12.999999999999996 4.999999999999995
    vertex 61.663347664413415 32.99999999999999 0.9999999999999998
    vertex 61.6633476644134 20.999999999999996 4.999999999999995
  endloop
endfacet
facet normal 1.0 0.0 0.0
  outer loop
    vertex 61.6633476644134 20.999999999999996 4.999999999999995
    vertex 61.663347664413415 32.99999999999999 0.9999999999999998
    vertex 61.6633476644134 20.999999999999996 7.999999999999994
  endloop
endfacet
facet normal 1.0 0.0 0.0
  outer loop
    vertex 61.663347664413415 0.9999999999999999 26.000000000000004
    vertex 61.663347664413415 12.999999999999996 7.999999999999994
    vertex 61.663347664413415 32.99999999999999 26.000000000000004
  endloop
endfacet
facet normal 1.0 0.0 0.0
  outer loop
    vertex 61.663347664413415 12.999999999999996 7.999999999999994
    vertex 61.663347664413415 0.9999999999999999 26.000000000000004
    vertex 61.663347664413415 12.999999999999996 4.999999999999995
  endloop
endfacet
facet normal 1.0 0.0 0.0
  outer loop
    vertex 61.663347664413415 32.99999999999999 26.000000000000004
    vertex 61.663347664413415 12.999999999999996 7.999999999999994
    vertex 61.6633476644134 20.999999999999996 7.999999999999994
  endloop
endfacet
facet normal 1.0 0.0 0.0
  outer loop
    vertex 61.663347664413415 32.99999999999999 26.000000000000004
    vertex 61.6633476644134 20.999999999999996 7.999999999999994
    vertex 61.663347664413415 32.99999999999999 0.9999999999999998
  endloop
endfacet
facet normal -1.0 0.0 0.0
  outer loop
    vertex 20.66334766441342 31.999999999999996 26.000000000000004
    vertex 20.66334766441342 0.9999999999999999 0.9999999999999999
    vertex 20.66334766441342 0.9999999999999999 26.000000000000004
  endloop
endfacet
facet normal -1.0 0.0 0.0
  outer loop
    vertex 20.66334766441342 0.9999999999999999 0.9999999999999999
    vertex 20.66334766441342 31.999999999999996 26.000000000000004
    vertex 20.66334766441342 32.99999999999999 0.9999999999999998
  endloop
endfacet
facet normal -1.0 0.0 0.0
  outer loop
    vertex 20.66334766441342 32.99999999999999 0.9999999999999998
    vertex 20.66334766441342 31.999999999999996 26.000000000000004
    vertex 20.66334766441342 32.99999999999999 26.000000000000004
  endloop
endfacet
facet normal 0.0 0.0 -1.0
  outer loop
    vertex 62.663347664413415 34.0 0.0
    vertex 19.663347664413422 0.0 0.0
    vertex 19.663347664413422 34.0 0.0
  endloop
endfacet
facet normal 0.0 0.0 -1.0
  outer loop
    vertex 19.663347664413422 0.0 0.0
    vertex 62.663347664413415 34.0 0.0
    vertex 39.16334766441342 0.0 0.0
  endloop
endfacet
facet normal 0.0 0.0 -1.0
  outer loop
    vertex 39.16334766441342 0.0 0.0
    vertex 62.663347664413415 34.0 0.0
    vertex 62.663347664413415 0.0 0.0
  endloop
endfacet
facet normal 0.0 -1.0 0.0
  outer loop
    vertex 61.663347664413415 0.9999999999999999 26.000000000000004
    vertex 20.66334766441342 0.9999999999999999 0.9999999999999999
    vertex 61.663347664413415 0.9999999999999999 0.9999999999999999
  endloop
endfacet
facet normal 0.0 -1.0 0.0
  outer loop
    vertex 20.66334766441342 0.9999999999999999 0.9999999999999999
    vertex 61.663347664413415 0.9999999999999999 26.000000000000004
    vertex 20.66334766441342 0.9999999999999999 26.000000000000004
  endloop
endfacet
facet normal 2.4674706722294145e-15 3.476034500215e-30 -1.0
  outer loop
    vertex 62.6633476644134 20.999999999999996 4.999999999999999
    vertex 61.663347664413415 12.999999999999996 4.999999999999995
    vertex 61.6633476644134 20.999999999999996 4.999999999999995
  endloop
endfacet
facet normal 2.4674706722294145e-15 3.476034500215e-30 -1.0
  outer loop
    vertex 61.663347664413415 12.999999999999996 4.999999999999995
    vertex 62.6633476644134 20.999999999999996 4.999999999999999
    vertex 62.663347664413415 12.999999999999998 4.999999999999999
  endloop
endfacet
facet normal -2.8199664825479026e-15 -3.9726108573885724e-30 1.0
  outer loop
    vertex 61.663347664413415 12.999999999999996 7.999999999999994
    vertex 62.6633476644134 20.999999999999996 7.999999999999999
    vertex 61.6633476644134 20.999999999999996 7.999999999999994
  endloop
endfacet
facet normal -2.8199664825479026e-15 -3.9726108573885724e-30 1.0
  outer loop
    vertex 62.6633476644134 20.999999999999996 7.999999999999999
    vertex 61.663347664413415 12.999999999999996 7.999999999999994
    vertex 62.663347664413415 12.999999999999998 7.999999999999999
  endloop
endfacet
facet normal 1.409983241273948e-15 -0.9999999999999999 0.0
  outer loop
    vertex 62.663347664413415 12.999999999999998 4.999999999999999
    vertex 61.663347664413415 12.999999999999996 7.999999999999994
    vertex 61.663347664413415 12.999999999999996 4.999999999999995
  endloop
endfacet
facet normal 1.409983241273948e-15 -0.9999999999999999 0.0
  outer loop
    vertex 61.663347664413415 12.999999999999996 7.999999999999994
    vertex 62.663347664413415 12.999999999999998 4.999999999999999
    vertex 62.663347664413415 12.999999999999998 7.999999999999999
  endloop
endfacet
facet normal -0.0 1.0 -0.0
  outer loop
    vertex 19.663347664413422 0.0 26.000000000000004
    vertex 39.16334766441342 0.0 0.0
    vertex 19.663347664413422 0.0 0.0
  endloop
endfacet
facet normal -0.0 1.0 -0.0
  outer loop
    vertex 39.16334766441342 0.0 0.0
    vertex 19.663347664413422 0.0 26.000000000000004
    vertex 62.663347664413415 0.0 0.0
  endloop
endfacet
facet normal -0.0 1.0 -0.0
  outer loop
    vertex 62.663347664413415 0.0 0.0
    vertex 19.663347664413422 0.0 26.000000000000004
    vertex 62.663347664413415 0.0 4.999999999999999
  endloop
endfacet
facet normal -0.0 1.0 -0.0
  outer loop
    vertex 62.663347664413415 0.0 4.999999999999999
    vertex 19.663347664413422 0.0 26.000000000000004
    vertex 62.663347664413415 0.0 26.000000000000004
  endloop
endfacet
facet normal -2.6055185223808607e-50 -5.507747036226364e-18 -1.0
  outer loop
    vertex 61.663347664413415 32.99999999999999 0.9999999999999998
    vertex 20.66334766441342 0.9999999999999999 0.9999999999999999
    vertex 20.66334766441342 32.99999999999999 0.9999999999999998
  endloop
endfacet
facet normal -2.6055185223808607e-50 -5.507747036226364e-18 -1.0
  outer loop
    vertex 20.66334766441342 0.9999999999999999 0.9999999999999999
    vertex 61.663347664413415 32.99999999999999 0.9999999999999998
    vertex 61.663347664413415 0.9999999999999999 0.9999999999999999
  endloop
endfacet
endsolid Box model
